<svg aria-hidden="true" style="position: absolute; width: 0; height: 0; overflow: hidden;" version="1.1" xmlns="http://www.w3.org/2000/svg" xmlns:xlink="http://www.w3.org/1999/xlink">
<defs>
<symbol id="icon-accordion-arrow-down-mobile" viewBox="0 0 32 32">
<path stroke-linejoin="miter" stroke-linecap="butt" stroke-miterlimit="4" stroke-width="0.8421" d="M16 31.579c-8.604 0-15.579-6.975-15.579-15.579s6.975-15.579 15.579-15.579c8.604 0 15.579 6.975 15.579 15.579s-6.975 15.579-15.579 15.579z"></path>
<path stroke-linejoin="miter" stroke-linecap="butt" stroke-miterlimit="4" stroke-width="1.6842" d="M12.211 14.105l3.789 3.789 3.789-3.789"></path>
</symbol>
<symbol id="icon-accordion-arrow-down-tablet-and-desktop" viewBox="0 0 32 32">
<path stroke-linejoin="miter" stroke-linecap="butt" stroke-miterlimit="4" stroke-width="0.7619" d="M16 0.381c8.626 0 15.619 6.993 15.619 15.619s-6.993 15.619-15.619 15.619c-8.626 0-15.619-6.993-15.619-15.619s6.993-15.619 15.619-15.619z"></path>
<path stroke-linejoin="miter" stroke-linecap="butt" stroke-miterlimit="4" stroke-width="1.5238" d="M19.81 14.095l-3.81 3.81-3.81-3.81"></path>
</symbol>
<symbol id="icon-accordion-arrow-up-mobile" viewBox="0 0 32 32">
<path stroke-linejoin="miter" stroke-linecap="butt" stroke-miterlimit="4" stroke-width="0.8421" d="M16 0.421c8.604 0 15.579 6.975 15.579 15.579s-6.975 15.579-15.579 15.579c-8.604 0-15.579-6.975-15.579-15.579s6.975-15.579 15.579-15.579z"></path>
<path stroke-linejoin="miter" stroke-linecap="butt" stroke-miterlimit="4" stroke-width="1.6842" d="M19.789 17.895l-3.789-3.789-3.789 3.789"></path>
</symbol>
<symbol id="icon-accordion-arrow-up-tablet-and-desktop" viewBox="0 0 32 32">
<path stroke-linejoin="miter" stroke-linecap="butt" stroke-miterlimit="4" stroke-width="0.7619" d="M16 0.381c8.626 0 15.619 6.993 15.619 15.619s-6.993 15.619-15.619 15.619c-8.626 0-15.619-6.993-15.619-15.619s6.993-15.619 15.619-15.619z"></path>
<path stroke-linejoin="miter" stroke-linecap="butt" stroke-miterlimit="4" stroke-width="1.5238" d="M19.81 17.905l-3.81-3.81-3.81 3.81"></path>
</symbol>
<symbol id="icon-arrow-right-about-me-tablet-and-desktop" viewBox="0 0 32 32">
<path stroke-linejoin="round" stroke-linecap="round" stroke-miterlimit="4" stroke-width="1.6" d="M5.334 16h21.333"></path>
<path stroke-linejoin="round" stroke-linecap="round" stroke-miterlimit="4" stroke-width="1.6" d="M18.666 8l8 8-8 8"></path>
</symbol>
<symbol id="icon-arrow-right-mobile-about-me-swiper" viewBox="0 0 32 32">
<path stroke-linejoin="round" stroke-linecap="round" stroke-miterlimit="4" stroke-width="2.2857" d="M5.334 16h21.333"></path>
<path stroke-linejoin="round" stroke-linecap="round" stroke-miterlimit="4" stroke-width="2.2857" d="M18.666 8l8 8-8 8"></path>
</symbol>
<symbol id="icon-benefits-art" viewBox="0 0 32 32">
<path fill="#ed3b44" style="fill: var(--color1, #ed3b44)" d="M6.667 0h18.667c3.682 0 6.667 2.985 6.667 6.667v18.667c0 3.682-2.985 6.667-6.667 6.667h-18.667c-3.682 0-6.667-2.985-6.667-6.667v-18.667c0-3.682 2.985-6.667 6.667-6.667z"></path>
<path fill="none" stroke="#fafafa" style="stroke: var(--color2, #fafafa)" stroke-linejoin="round" stroke-linecap="round" stroke-miterlimit="4" stroke-width="1.3333" d="M16.519 18l-2.519-2.518"></path>
<path fill="none" stroke="#fafafa" style="stroke: var(--color2, #fafafa)" stroke-linejoin="round" stroke-linecap="round" stroke-miterlimit="4" stroke-width="1.3333" d="M9.333 22.667c1.333 0 3.072 0.228 3.983-0.683s0.911-2.389 0-3.3c-0.911-0.911-2.389-0.911-3.3 0s0 2.65-0.683 3.983z"></path>
<path fill="none" stroke="#fafafa" style="stroke: var(--color2, #fafafa)" stroke-linejoin="round" stroke-linecap="round" stroke-miterlimit="4" stroke-width="1.3333" d="M13.333 18.667c-0.328-0.328-0.491-0.491-0.584-0.663-0.222-0.411-0.213-0.909 0.025-1.311 0.099-0.168 0.269-0.325 0.609-0.64l6.579-6.091c0.579-0.537 1.479-0.519 2.038 0.039s0.576 1.458 0.039 2.038l-6.091 6.579c-0.315 0.34-0.472 0.51-0.64 0.609-0.403 0.238-0.9 0.247-1.311 0.025-0.172-0.093-0.335-0.256-0.663-0.584z"></path>
</symbol>
<symbol id="icon-benefits-communication" viewBox="0 0 32 32">
<path fill="#ed3b44" style="fill: var(--color1, #ed3b44)" d="M6.667 0h18.667c3.682 0 6.667 2.985 6.667 6.667v18.667c0 3.682-2.985 6.667-6.667 6.667h-18.667c-3.682 0-6.667-2.985-6.667-6.667v-18.667c0-3.682 2.985-6.667 6.667-6.667z"></path>
<path fill="none" stroke="#fafafa" style="stroke: var(--color2, #fafafa)" stroke-linejoin="round" stroke-linecap="round" stroke-miterlimit="4" stroke-width="1.3333" d="M12.063 15.486c-0.041-0.267-0.063-0.541-0.063-0.819 0-2.946 2.403-5.333 5.368-5.333s5.368 2.388 5.368 5.333c0 0.665-0.123 1.302-0.347 1.89-0.047 0.122-0.070 0.183-0.080 0.231s-0.015 0.080-0.016 0.129c-0.001 0.049 0.005 0.102 0.019 0.21l0.268 2.18c0.029 0.236 0.044 0.354 0.004 0.44-0.034 0.075-0.095 0.135-0.171 0.168-0.087 0.037-0.204 0.020-0.44-0.014l-2.123-0.311c-0.111-0.016-0.166-0.024-0.217-0.024s-0.084 0.004-0.133 0.014c-0.049 0.010-0.113 0.034-0.239 0.081-0.589 0.221-1.227 0.341-1.894 0.341-0.279 0-0.553-0.021-0.82-0.062M13.088 22.667c1.977 0 3.579-1.642 3.579-3.667s-1.602-3.667-3.579-3.667c-1.977 0-3.579 1.642-3.579 3.667 0 0.407 0.065 0.799 0.184 1.164 0.051 0.155 0.076 0.232 0.084 0.285 0.009 0.055 0.010 0.086 0.007 0.142-0.003 0.053-0.016 0.114-0.043 0.234l-0.408 1.841 1.997-0.273c0.109-0.015 0.163-0.022 0.211-0.022 0.050 0 0.077 0.003 0.126 0.013 0.047 0.009 0.116 0.034 0.255 0.083 0.366 0.129 0.758 0.199 1.166 0.199z"></path>
</symbol>
<symbol id="icon-benefits-urgent-execution" viewBox="0 0 32 32">
<path fill="#ed3b44" style="fill: var(--color1, #ed3b44)" d="M6.667 0h18.667c3.682 0 6.667 2.985 6.667 6.667v18.667c0 3.682-2.985 6.667-6.667 6.667h-18.667c-3.682 0-6.667-2.985-6.667-6.667v-18.667c0-3.682 2.985-6.667 6.667-6.667z"></path>
<path fill="none" stroke="#fafafa" style="stroke: var(--color2, #fafafa)" stroke-linejoin="round" stroke-linecap="round" stroke-miterlimit="4" stroke-width="1.3333" d="M20.108 9.333h-8.217c-0.308 0-0.558 0.25-0.558 0.558 0 1.777 0.706 3.481 1.962 4.737l0.813 0.813c0.081 0.081 0.121 0.121 0.15 0.16 0.176 0.236 0.176 0.561 0 0.797-0.029 0.039-0.069 0.079-0.15 0.16l-0.813 0.813c-1.256 1.256-1.962 2.96-1.962 4.737 0 0.308 0.25 0.558 0.558 0.558h8.217c0.308 0 0.558-0.25 0.558-0.558 0-1.777-0.706-3.481-1.962-4.737l-0.813-0.813c-0.081-0.081-0.121-0.121-0.15-0.16-0.176-0.236-0.176-0.561 0-0.797 0.029-0.039 0.069-0.079 0.15-0.16l0.813-0.813c1.256-1.256 1.962-2.96 1.962-4.737 0-0.308-0.25-0.558-0.558-0.558z"></path>
</symbol>
<symbol id="icon-benefits-user" viewBox="0 0 32 32">
<path fill="#ed3b44" style="fill: var(--color1, #ed3b44)" d="M6.667 0h18.667c3.682 0 6.667 2.985 6.667 6.667v18.667c0 3.682-2.985 6.667-6.667 6.667h-18.667c-3.682 0-6.667-2.985-6.667-6.667v-18.667c0-3.682 2.985-6.667 6.667-6.667z"></path>
<path fill="none" stroke="#fafafa" style="stroke: var(--color2, #fafafa)" stroke-linejoin="round" stroke-linecap="round" stroke-miterlimit="4" stroke-width="1.3333" d="M21.333 22c0-0.93 0-1.396-0.115-1.774-0.259-0.852-0.926-1.519-1.778-1.778-0.379-0.115-0.844-0.115-1.774-0.115h-3.333c-0.93 0-1.396 0-1.774 0.115-0.852 0.259-1.519 0.926-1.778 1.778-0.115 0.379-0.115 0.844-0.115 1.774"></path>
<path fill="none" stroke="#fafafa" style="stroke: var(--color2, #fafafa)" stroke-linejoin="round" stroke-linecap="round" stroke-miterlimit="4" stroke-width="1.3333" d="M16 16c1.657 0 3-1.343 3-3s-1.343-3-3-3c-1.657 0-3 1.343-3 3s1.343 3 3 3z"></path>
</symbol>
<symbol id="icon-footer-modal-x" viewBox="0 0 32 32">
<path stroke-linejoin="round" stroke-linecap="round" stroke-miterlimit="4" stroke-width="2.6667" d="M24 8l-16 16"></path>
<path stroke-linejoin="round" stroke-linecap="round" stroke-miterlimit="4" stroke-width="2.6667" d="M8 8l16 16"></path>
</symbol>
<symbol id="icon-header-burger" viewBox="0 0 32 32">
<path stroke-linejoin="round" stroke-linecap="round" stroke-miterlimit="4" stroke-width="2.2857" d="M4 11.333h24M4 20.667h24"></path>
</symbol>
<symbol id="icon-hero-email" viewBox="0 0 130 32">
<path d="M15.418 12.427v6.773h-0.982v-6.773h0.982zM17.159 12.427v6.773h-0.982v-6.773h0.982zM20.050 19.305c-0.476 0-0.892-0.109-1.25-0.327-0.355-0.218-0.63-0.524-0.827-0.918-0.194-0.394-0.291-0.852-0.291-1.373 0-0.527 0.097-0.988 0.291-1.382 0.197-0.397 0.473-0.705 0.827-0.923 0.358-0.218 0.774-0.327 1.25-0.327 0.479 0 0.895 0.109 1.25 0.327s0.63 0.526 0.827 0.923c0.197 0.394 0.295 0.855 0.295 1.382 0 0.521-0.099 0.979-0.295 1.373s-0.473 0.7-0.827 0.918-0.771 0.327-1.25 0.327zM20.050 18.473c0.312 0 0.57-0.082 0.773-0.245s0.353-0.38 0.45-0.65c0.1-0.273 0.15-0.57 0.15-0.891 0-0.327-0.050-0.627-0.15-0.9-0.097-0.273-0.247-0.491-0.45-0.655s-0.461-0.245-0.773-0.245c-0.309 0-0.565 0.082-0.768 0.245-0.2 0.164-0.35 0.382-0.45 0.655s-0.15 0.573-0.15 0.9c0 0.321 0.050 0.618 0.15 0.891 0.1 0.27 0.25 0.486 0.45 0.65 0.203 0.164 0.459 0.245 0.768 0.245zM23.387 21.1c-0.148 0.003-0.283-0.008-0.405-0.032-0.118-0.021-0.209-0.047-0.273-0.077l0.241-0.805 0.068 0.018c0.252 0.064 0.464 0.059 0.636-0.014 0.176-0.070 0.323-0.265 0.441-0.586l0.123-0.336-1.855-5.15h1.059l1.282 3.945h0.055l1.286-3.945h1.059l-2.091 5.755c-0.097 0.267-0.22 0.491-0.368 0.673-0.148 0.185-0.327 0.323-0.536 0.414-0.206 0.094-0.447 0.141-0.723 0.141zM29.173 19.3c-0.412 0-0.779-0.105-1.1-0.314-0.321-0.212-0.573-0.514-0.755-0.905-0.182-0.394-0.273-0.864-0.273-1.409 0-0.552 0.092-1.023 0.277-1.414s0.438-0.689 0.759-0.895 0.685-0.309 1.091-0.309c0.318 0 0.573 0.053 0.764 0.159 0.194 0.103 0.344 0.224 0.45 0.364 0.109 0.139 0.192 0.262 0.25 0.368h0.059v-2.518h0.982v6.773h-0.959v-0.791h-0.082c-0.058 0.106-0.142 0.229-0.255 0.368s-0.265 0.262-0.459 0.368c-0.191 0.103-0.441 0.155-0.75 0.155zM29.387 18.459c0.285 0 0.526-0.076 0.723-0.227s0.345-0.362 0.445-0.632c0.103-0.27 0.155-0.582 0.155-0.936s-0.050-0.664-0.15-0.927c-0.1-0.267-0.248-0.473-0.445-0.618-0.197-0.148-0.439-0.223-0.727-0.223-0.297 0-0.544 0.077-0.741 0.232s-0.345 0.365-0.445 0.632c-0.1 0.267-0.15 0.568-0.15 0.905 0 0.339 0.050 0.645 0.15 0.918 0.1 0.27 0.248 0.483 0.445 0.641 0.2 0.158 0.447 0.236 0.741 0.236zM32.442 14.118h0.982v5.414c0.003 0.339-0.058 0.626-0.182 0.859s-0.306 0.409-0.545 0.527c-0.239 0.121-0.533 0.182-0.882 0.182h-0.2v-0.85h0.159c0.236 0 0.406-0.062 0.509-0.186s0.156-0.303 0.159-0.536v-5.409zM32.928 13.336c-0.173 0-0.32-0.058-0.441-0.173s-0.182-0.253-0.182-0.414c0-0.164 0.061-0.303 0.182-0.418s0.268-0.173 0.441-0.173c0.17 0 0.315 0.058 0.436 0.173 0.124 0.115 0.186 0.255 0.186 0.418 0 0.161-0.062 0.298-0.186 0.414-0.121 0.115-0.267 0.173-0.436 0.173zM36.369 19.305c-0.497 0-0.927-0.108-1.291-0.323s-0.644-0.518-0.841-0.909c-0.194-0.394-0.291-0.853-0.291-1.377 0-0.521 0.095-0.98 0.286-1.377 0.194-0.397 0.465-0.706 0.814-0.927 0.351-0.224 0.764-0.336 1.236-0.336 0.288 0 0.567 0.047 0.836 0.141s0.512 0.242 0.727 0.445c0.215 0.203 0.385 0.467 0.509 0.791 0.127 0.324 0.191 0.715 0.191 1.173v0.355h-4.041v-0.741h3.532l-0.459 0.245c0-0.312-0.048-0.588-0.145-0.827s-0.242-0.426-0.436-0.559c-0.191-0.136-0.429-0.205-0.714-0.205s-0.529 0.068-0.732 0.205c-0.2 0.136-0.353 0.317-0.459 0.541s-0.159 0.47-0.159 0.736v0.505c0 0.348 0.061 0.644 0.182 0.886s0.289 0.427 0.505 0.555c0.218 0.127 0.471 0.191 0.759 0.191 0.188 0 0.358-0.027 0.509-0.082 0.155-0.055 0.288-0.136 0.4-0.245s0.197-0.244 0.255-0.405l0.936 0.177c-0.076 0.273-0.209 0.512-0.4 0.718s-0.432 0.367-0.723 0.482c-0.288 0.112-0.617 0.168-0.986 0.168zM41.469 14.118v0.795h-2.868v-0.795h2.868zM39.383 19.2v-5.673c0-0.315 0.070-0.577 0.209-0.786 0.142-0.212 0.327-0.37 0.555-0.473 0.23-0.106 0.477-0.159 0.741-0.159 0.203 0 0.376 0.017 0.518 0.050s0.247 0.062 0.314 0.086l-0.236 0.8c-0.045-0.015-0.105-0.032-0.177-0.050-0.070-0.018-0.158-0.027-0.264-0.027-0.239 0-0.412 0.061-0.518 0.182-0.106 0.118-0.159 0.291-0.159 0.518v5.532h-0.982zM44.329 14.118v0.795h-2.868v-0.795h2.868zM42.242 19.2v-5.673c0-0.315 0.070-0.577 0.209-0.786 0.142-0.212 0.327-0.37 0.555-0.473 0.23-0.106 0.477-0.159 0.741-0.159 0.203 0 0.376 0.017 0.518 0.050s0.247 0.062 0.314 0.086l-0.236 0.8c-0.045-0.015-0.105-0.032-0.177-0.050-0.070-0.018-0.158-0.027-0.264-0.027-0.239 0-0.412 0.061-0.518 0.182-0.106 0.118-0.159 0.291-0.159 0.518v5.532h-0.982zM46.756 19.305c-0.497 0-0.927-0.108-1.291-0.323s-0.644-0.518-0.841-0.909c-0.194-0.394-0.291-0.853-0.291-1.377 0-0.521 0.095-0.98 0.286-1.377 0.194-0.397 0.465-0.706 0.814-0.927 0.352-0.224 0.764-0.336 1.236-0.336 0.288 0 0.567 0.047 0.836 0.141s0.512 0.242 0.727 0.445c0.215 0.203 0.385 0.467 0.509 0.791 0.127 0.324 0.191 0.715 0.191 1.173v0.355h-4.041v-0.741h3.532l-0.459 0.245c0-0.312-0.048-0.588-0.145-0.827s-0.242-0.426-0.436-0.559c-0.191-0.136-0.429-0.205-0.714-0.205s-0.529 0.068-0.732 0.205c-0.2 0.136-0.353 0.317-0.459 0.541s-0.159 0.47-0.159 0.736v0.505c0 0.348 0.061 0.644 0.182 0.886s0.289 0.427 0.505 0.555c0.218 0.127 0.471 0.191 0.759 0.191 0.188 0 0.358-0.027 0.509-0.082 0.155-0.055 0.288-0.136 0.4-0.245s0.197-0.244 0.255-0.405l0.936 0.177c-0.076 0.273-0.209 0.512-0.4 0.718s-0.432 0.367-0.723 0.482c-0.288 0.112-0.617 0.168-0.986 0.168zM49.438 19.2v-5.082h0.95v0.814h0.055c0.094-0.273 0.258-0.488 0.491-0.645 0.236-0.161 0.503-0.241 0.8-0.241 0.061 0 0.132 0.003 0.214 0.009 0.085 0.003 0.153 0.008 0.205 0.014v0.945c-0.039-0.012-0.111-0.024-0.214-0.036-0.1-0.012-0.201-0.018-0.305-0.018-0.233 0-0.442 0.050-0.627 0.15-0.182 0.097-0.326 0.232-0.432 0.405-0.103 0.17-0.155 0.367-0.155 0.591v3.095h-0.982zM56.243 15.364l-0.895 0.155c-0.058-0.17-0.165-0.326-0.323-0.468-0.155-0.142-0.386-0.214-0.696-0.214-0.279 0-0.512 0.064-0.7 0.191-0.185 0.124-0.277 0.283-0.277 0.477 0 0.17 0.062 0.308 0.186 0.414 0.127 0.106 0.329 0.191 0.605 0.255l0.814 0.182c0.464 0.106 0.811 0.273 1.041 0.5s0.345 0.518 0.345 0.873c0 0.306-0.088 0.579-0.264 0.818-0.176 0.236-0.42 0.423-0.732 0.559-0.312 0.133-0.673 0.2-1.082 0.2-0.57 0-1.033-0.123-1.391-0.368s-0.577-0.591-0.659-1.036l0.95-0.145c0.061 0.248 0.183 0.436 0.368 0.564 0.188 0.127 0.43 0.191 0.727 0.191 0.321 0 0.579-0.068 0.773-0.205 0.197-0.136 0.295-0.302 0.295-0.495 0-0.321-0.239-0.538-0.718-0.65l-0.859-0.191c-0.476-0.109-0.827-0.28-1.055-0.514-0.224-0.236-0.336-0.533-0.336-0.891 0-0.3 0.083-0.564 0.25-0.791 0.17-0.227 0.401-0.403 0.695-0.527 0.297-0.127 0.635-0.191 1.014-0.191 0.551 0 0.983 0.12 1.295 0.359 0.315 0.239 0.524 0.556 0.627 0.95zM58.98 19.305c-0.476 0-0.892-0.109-1.25-0.327-0.355-0.218-0.63-0.524-0.827-0.918-0.194-0.394-0.291-0.852-0.291-1.373 0-0.527 0.097-0.988 0.291-1.382 0.197-0.397 0.473-0.705 0.827-0.923 0.358-0.218 0.774-0.327 1.25-0.327 0.479 0 0.895 0.109 1.25 0.327s0.631 0.526 0.827 0.923c0.197 0.394 0.296 0.855 0.296 1.382 0 0.521-0.098 0.979-0.296 1.373s-0.472 0.7-0.827 0.918c-0.354 0.218-0.771 0.327-1.25 0.327zM58.98 18.473c0.312 0 0.57-0.082 0.773-0.245s0.353-0.38 0.45-0.65c0.099-0.273 0.15-0.57 0.15-0.891 0-0.327-0.050-0.627-0.15-0.9-0.097-0.273-0.247-0.491-0.45-0.655s-0.461-0.245-0.773-0.245c-0.309 0-0.565 0.082-0.768 0.245-0.2 0.164-0.35 0.382-0.45 0.655s-0.15 0.573-0.15 0.9c0 0.321 0.050 0.618 0.15 0.891 0.1 0.27 0.25 0.486 0.45 0.65 0.203 0.164 0.459 0.245 0.768 0.245zM62.861 16.186v3.014h-0.982v-5.082h0.954v0.836h0.068c0.115-0.276 0.296-0.494 0.541-0.655 0.246-0.164 0.561-0.245 0.945-0.245 0.346 0 0.647 0.073 0.905 0.218 0.261 0.142 0.462 0.356 0.605 0.641 0.145 0.285 0.218 0.638 0.218 1.059v3.227h-0.982v-3.109c0-0.367-0.097-0.655-0.291-0.864-0.194-0.212-0.457-0.318-0.791-0.318-0.227 0-0.432 0.052-0.614 0.155-0.179 0.1-0.319 0.244-0.422 0.432s-0.155 0.418-0.155 0.691zM70.921 21.036c-0.685 0-1.292-0.092-1.823-0.277-0.527-0.185-0.973-0.458-1.336-0.818-0.36-0.361-0.635-0.802-0.823-1.323s-0.282-1.117-0.282-1.786c0-0.652 0.095-1.236 0.286-1.755 0.191-0.521 0.467-0.965 0.827-1.332 0.364-0.37 0.805-0.652 1.322-0.845 0.521-0.194 1.112-0.291 1.773-0.291 0.631 0 1.188 0.1 1.673 0.3 0.485 0.197 0.891 0.468 1.218 0.814 0.33 0.345 0.579 0.742 0.745 1.191 0.17 0.448 0.255 0.923 0.255 1.423 0 0.345-0.023 0.685-0.068 1.018s-0.13 0.635-0.255 0.905c-0.121 0.27-0.297 0.485-0.527 0.645-0.228 0.158-0.523 0.236-0.887 0.236-0.166 0-0.336-0.026-0.509-0.077-0.169-0.052-0.315-0.133-0.436-0.245-0.118-0.112-0.191-0.255-0.218-0.427h-0.036c-0.052 0.127-0.135 0.245-0.25 0.355-0.115 0.106-0.262 0.192-0.441 0.259-0.176 0.067-0.38 0.1-0.613 0.1-0.406 0-0.752-0.1-1.037-0.3-0.284-0.203-0.502-0.479-0.65-0.827-0.145-0.348-0.218-0.745-0.218-1.191 0-0.436 0.087-0.821 0.26-1.155 0.176-0.333 0.41-0.592 0.704-0.777 0.297-0.188 0.631-0.282 1-0.282 0.303 0 0.556 0.053 0.759 0.159 0.206 0.106 0.344 0.214 0.414 0.323h0.050v-0.373h0.809v3.068c0 0.176 0.046 0.324 0.137 0.445s0.223 0.182 0.395 0.182c0.2 0 0.356-0.074 0.468-0.223 0.115-0.148 0.195-0.376 0.241-0.682 0.049-0.306 0.073-0.698 0.073-1.177 0-0.336-0.045-0.652-0.136-0.945-0.091-0.297-0.223-0.565-0.396-0.805-0.169-0.242-0.38-0.45-0.632-0.623-0.251-0.176-0.538-0.311-0.859-0.405-0.321-0.097-0.674-0.145-1.059-0.145-0.53 0-1 0.082-1.409 0.245s-0.754 0.397-1.036 0.7c-0.279 0.303-0.491 0.667-0.636 1.091s-0.218 0.9-0.218 1.427c0 0.548 0.073 1.036 0.218 1.464 0.149 0.424 0.367 0.782 0.655 1.073 0.291 0.291 0.649 0.512 1.073 0.664 0.428 0.151 0.92 0.227 1.477 0.227 0.248 0 0.491-0.023 0.727-0.068 0.237-0.042 0.447-0.092 0.632-0.15 0.188-0.055 0.328-0.097 0.418-0.127l0.228 0.727c-0.134 0.061-0.312 0.121-0.536 0.182s-0.468 0.111-0.732 0.15-0.523 0.059-0.777 0.059zM70.607 18.291c0.288 0 0.52-0.058 0.695-0.173s0.301-0.286 0.378-0.514c0.079-0.227 0.118-0.512 0.118-0.855 0-0.336-0.042-0.605-0.127-0.805-0.082-0.2-0.209-0.344-0.382-0.432s-0.394-0.132-0.664-0.132c-0.248 0-0.46 0.062-0.636 0.186-0.176 0.121-0.31 0.285-0.404 0.491-0.091 0.206-0.136 0.436-0.136 0.691 0 0.267 0.036 0.517 0.109 0.75 0.076 0.233 0.198 0.424 0.368 0.573 0.17 0.145 0.397 0.218 0.682 0.218zM77.425 21.209c-0.606 0-1.083-0.114-1.432-0.341s-0.589-0.497-0.723-0.809l0.845-0.35c0.061 0.097 0.141 0.2 0.241 0.309 0.103 0.109 0.241 0.202 0.414 0.277s0.396 0.114 0.668 0.114c0.373 0 0.682-0.091 0.927-0.273 0.246-0.179 0.368-0.467 0.368-0.864v-0.995h-0.068c-0.055 0.106-0.138 0.226-0.25 0.359-0.112 0.13-0.265 0.244-0.459 0.341s-0.447 0.145-0.759 0.145c-0.4 0-0.76-0.094-1.082-0.282-0.318-0.191-0.573-0.47-0.764-0.836-0.187-0.37-0.282-0.824-0.282-1.364s0.093-1.002 0.278-1.386c0.188-0.388 0.442-0.685 0.763-0.891s0.687-0.309 1.096-0.309c0.315 0 0.57 0.053 0.763 0.159 0.197 0.103 0.35 0.224 0.46 0.364s0.194 0.262 0.254 0.368h0.073v-0.827h0.959v5.195c0 0.436-0.101 0.794-0.304 1.073-0.2 0.279-0.472 0.485-0.818 0.618-0.346 0.136-0.735 0.204-1.168 0.204zM77.416 18.3c0.428 0 0.755-0.147 0.982-0.441 0.23-0.297 0.346-0.708 0.346-1.232 0-0.342-0.050-0.642-0.15-0.9-0.1-0.261-0.248-0.464-0.446-0.609-0.197-0.148-0.441-0.223-0.732-0.223-0.297 0-0.545 0.077-0.745 0.232-0.197 0.152-0.346 0.359-0.446 0.623-0.1 0.261-0.15 0.553-0.15 0.877 0 0.33 0.050 0.623 0.15 0.877 0.1 0.252 0.25 0.447 0.45 0.586 0.203 0.139 0.45 0.209 0.741 0.209zM80.475 19.2v-5.082h0.941v0.836h0.068c0.106-0.282 0.279-0.502 0.518-0.659 0.243-0.161 0.531-0.241 0.864-0.241 0.339 0 0.623 0.080 0.85 0.241 0.23 0.158 0.401 0.377 0.514 0.659h0.054c0.122-0.276 0.314-0.494 0.578-0.655 0.264-0.164 0.577-0.245 0.941-0.245 0.46 0 0.838 0.145 1.132 0.436 0.294 0.288 0.441 0.723 0.441 1.305v3.405h-0.991v-3.314c0-0.345-0.094-0.594-0.282-0.745-0.188-0.155-0.412-0.232-0.673-0.232-0.321 0-0.571 0.1-0.75 0.3-0.176 0.197-0.264 0.447-0.264 0.75v3.241h-0.991v-3.377c0-0.276-0.085-0.497-0.255-0.664s-0.392-0.25-0.668-0.25c-0.188 0-0.362 0.050-0.523 0.15-0.157 0.097-0.284 0.233-0.382 0.409-0.094 0.173-0.141 0.373-0.141 0.6v3.132h-0.982zM89.608 19.309c-0.321 0-0.612-0.059-0.873-0.177-0.261-0.121-0.467-0.297-0.618-0.527s-0.228-0.511-0.228-0.841c0-0.288 0.055-0.523 0.163-0.705 0.112-0.185 0.262-0.332 0.45-0.441s0.397-0.191 0.627-0.245c0.23-0.055 0.467-0.097 0.709-0.127 0.306-0.033 0.553-0.062 0.741-0.086s0.324-0.062 0.409-0.114c0.088-0.055 0.132-0.141 0.132-0.259v-0.023c0-0.288-0.082-0.511-0.246-0.668-0.161-0.158-0.4-0.236-0.719-0.236-0.33 0-0.592 0.073-0.786 0.218-0.191 0.142-0.323 0.305-0.396 0.486l-0.931-0.214c0.112-0.309 0.274-0.558 0.486-0.745 0.215-0.191 0.46-0.33 0.736-0.418 0.279-0.088 0.57-0.132 0.873-0.132 0.203 0 0.418 0.024 0.646 0.073 0.227 0.046 0.44 0.132 0.641 0.259 0.203 0.124 0.368 0.303 0.496 0.536s0.191 0.535 0.191 0.905v3.373h-0.968v-0.695h-0.037c-0.061 0.124-0.156 0.248-0.286 0.373-0.127 0.124-0.291 0.227-0.491 0.309s-0.441 0.123-0.723 0.123zM89.821 18.518c0.276 0 0.511-0.053 0.705-0.159 0.194-0.109 0.343-0.252 0.446-0.427s0.154-0.362 0.154-0.559v-0.659c-0.036 0.033-0.104 0.065-0.204 0.095s-0.214 0.056-0.341 0.077c-0.127 0.021-0.251 0.041-0.373 0.059-0.121 0.015-0.222 0.027-0.304 0.036-0.191 0.027-0.365 0.070-0.523 0.127-0.157 0.055-0.284 0.136-0.382 0.245-0.094 0.106-0.141 0.247-0.141 0.423 0 0.245 0.091 0.43 0.273 0.555s0.412 0.186 0.691 0.186zM92.876 19.2v-5.082h0.982v5.082h-0.982zM93.371 13.336c-0.173 0-0.319-0.058-0.441-0.173s-0.182-0.253-0.182-0.414c0-0.164 0.061-0.303 0.182-0.418s0.268-0.173 0.441-0.173c0.17 0 0.315 0.058 0.436 0.173 0.124 0.115 0.187 0.255 0.187 0.418 0 0.161-0.062 0.298-0.187 0.414-0.121 0.115-0.266 0.173-0.436 0.173zM95.599 12.427v6.773h-0.982v-6.773h0.982zM97.094 19.264c-0.184 0-0.342-0.064-0.472-0.191-0.127-0.127-0.191-0.283-0.191-0.468s0.063-0.341 0.191-0.468c0.13-0.127 0.288-0.191 0.472-0.191s0.341 0.064 0.468 0.191c0.13 0.127 0.195 0.283 0.195 0.468s-0.065 0.341-0.195 0.468c-0.127 0.127-0.283 0.191-0.468 0.191zM100.722 19.305c-0.488 0-0.909-0.112-1.264-0.336s-0.627-0.533-0.818-0.927-0.286-0.845-0.286-1.355c0-0.518 0.097-0.974 0.291-1.368 0.197-0.397 0.471-0.706 0.823-0.927 0.354-0.224 0.77-0.336 1.245-0.336 0.388 0 0.732 0.071 1.032 0.214 0.303 0.139 0.547 0.338 0.732 0.595 0.187 0.258 0.298 0.558 0.332 0.9h-0.963c-0.034-0.161-0.099-0.308-0.195-0.441-0.094-0.133-0.218-0.239-0.373-0.318s-0.338-0.118-0.55-0.118c-0.276 0-0.517 0.073-0.723 0.218-0.203 0.142-0.362 0.347-0.478 0.614s-0.173 0.582-0.173 0.945c0 0.367 0.056 0.686 0.168 0.959s0.272 0.483 0.478 0.632c0.209 0.145 0.451 0.218 0.727 0.218 0.284 0 0.527-0.079 0.727-0.236 0.203-0.158 0.333-0.373 0.391-0.645h0.963c-0.033 0.33-0.14 0.624-0.318 0.882s-0.418 0.461-0.718 0.609c-0.3 0.148-0.65 0.223-1.050 0.223zM105.454 19.305c-0.476 0-0.892-0.109-1.25-0.327-0.355-0.218-0.631-0.524-0.827-0.918-0.194-0.394-0.291-0.852-0.291-1.373 0-0.527 0.097-0.988 0.291-1.382 0.197-0.397 0.472-0.705 0.827-0.923 0.357-0.218 0.774-0.327 1.25-0.327 0.479 0 0.895 0.109 1.25 0.327s0.63 0.526 0.827 0.923c0.197 0.394 0.296 0.855 0.296 1.382 0 0.521-0.098 0.979-0.296 1.373s-0.472 0.7-0.827 0.918c-0.355 0.218-0.772 0.327-1.25 0.327zM105.454 18.473c0.312 0 0.57-0.082 0.773-0.245s0.353-0.38 0.45-0.65c0.1-0.273 0.15-0.57 0.15-0.891 0-0.327-0.049-0.627-0.15-0.9-0.097-0.273-0.247-0.491-0.45-0.655s-0.46-0.245-0.773-0.245c-0.309 0-0.565 0.082-0.768 0.245-0.2 0.164-0.35 0.382-0.45 0.655s-0.15 0.573-0.15 0.9c0 0.321 0.049 0.618 0.15 0.891 0.1 0.27 0.25 0.486 0.45 0.65 0.203 0.164 0.459 0.245 0.768 0.245zM108.354 19.2v-5.082h0.941v0.836h0.068c0.106-0.282 0.279-0.502 0.518-0.659 0.242-0.161 0.53-0.241 0.863-0.241 0.339 0 0.623 0.080 0.85 0.241 0.23 0.158 0.401 0.377 0.514 0.659h0.055c0.121-0.276 0.314-0.494 0.577-0.655 0.264-0.164 0.577-0.245 0.941-0.245 0.461 0 0.838 0.145 1.132 0.436 0.294 0.288 0.441 0.723 0.441 1.305v3.405h-0.991v-3.314c0-0.345-0.094-0.594-0.282-0.745-0.188-0.155-0.412-0.232-0.673-0.232-0.321 0-0.571 0.1-0.75 0.3-0.176 0.197-0.264 0.447-0.264 0.75v3.241h-0.991v-3.377c0-0.276-0.085-0.497-0.254-0.664s-0.393-0.25-0.668-0.25c-0.188 0-0.362 0.050-0.522 0.15-0.158 0.097-0.285 0.233-0.382 0.409-0.094 0.173-0.141 0.373-0.141 0.6v3.132h-0.982z"></path>
</symbol>
<symbol id="icon-hero-facebook" viewBox="0 0 31 32">
<path stroke-linejoin="miter" stroke-linecap="butt" stroke-miterlimit="4" stroke-width="0.5818" d="M15.418 0.291c8.355 0 15.127 6.773 15.127 15.127v1.164c0 8.355-6.773 15.127-15.127 15.127s-15.127-6.773-15.127-15.127v-1.164c0-8.355 6.773-15.127 15.127-15.127z"></path>
<path d="M10.436 19.2v-6.773h4.205v0.877h-3.182v2.195h2.877v0.873h-2.877v2.827h-1.023zM15.314 19.2v-6.773h2.486c0.479 0 0.876 0.079 1.191 0.236s0.55 0.371 0.705 0.641c0.158 0.267 0.236 0.567 0.236 0.9 0 0.282-0.053 0.52-0.159 0.714-0.103 0.194-0.241 0.348-0.414 0.464s-0.364 0.2-0.573 0.255v0.064c0.227 0.012 0.448 0.085 0.664 0.218s0.392 0.323 0.532 0.568c0.142 0.242 0.214 0.539 0.214 0.891 0 0.345-0.082 0.656-0.245 0.932-0.161 0.273-0.409 0.489-0.745 0.65s-0.768 0.241-1.295 0.241h-2.595zM16.337 18.327h1.473c0.491 0 0.842-0.095 1.055-0.286s0.318-0.429 0.318-0.714c0-0.215-0.055-0.411-0.164-0.586-0.106-0.179-0.259-0.321-0.459-0.427s-0.436-0.159-0.709-0.159h-1.514v2.173zM16.337 15.359h1.373c0.227 0 0.433-0.044 0.618-0.132s0.33-0.212 0.436-0.373c0.109-0.164 0.164-0.353 0.164-0.568 0-0.279-0.099-0.512-0.295-0.7-0.194-0.191-0.492-0.286-0.895-0.286h-1.4v2.059z"></path>
</symbol>
<symbol id="icon-hero-githab" viewBox="0 0 32 32">
<path stroke-linejoin="miter" stroke-linecap="butt" stroke-miterlimit="4" stroke-width="0.5818" d="M16 0.291c8.676 0 15.709 7.033 15.709 15.709s-7.033 15.709-15.709 15.709c-8.676 0-15.709-7.033-15.709-15.709s7.033-15.709 15.709-15.709z"></path>
<path d="M12.718 19.291c-0.612 0-1.15-0.141-1.614-0.423-0.461-0.282-0.821-0.682-1.082-1.2-0.258-0.521-0.386-1.138-0.386-1.85 0-0.721 0.13-1.341 0.391-1.859 0.264-0.521 0.624-0.921 1.082-1.2 0.458-0.282 0.979-0.423 1.564-0.423 0.364 0 0.703 0.055 1.018 0.164 0.318 0.106 0.6 0.259 0.845 0.459 0.248 0.2 0.453 0.436 0.614 0.709 0.164 0.27 0.274 0.57 0.332 0.9h-1.045c-0.064-0.203-0.148-0.383-0.255-0.541-0.106-0.161-0.233-0.297-0.382-0.409-0.149-0.115-0.317-0.201-0.505-0.259-0.185-0.061-0.391-0.091-0.618-0.091-0.382 0-0.726 0.098-1.032 0.295-0.306 0.194-0.548 0.48-0.727 0.859s-0.268 0.842-0.268 1.391 0.089 1.012 0.268 1.391c0.179 0.379 0.424 0.667 0.736 0.864 0.312 0.194 0.667 0.291 1.064 0.291 0.367 0 0.686-0.074 0.959-0.223 0.273-0.151 0.485-0.364 0.636-0.636s0.227-0.595 0.227-0.968l0.268 0.050h-1.936v-0.845h2.664v0.773c0 0.57-0.121 1.062-0.364 1.477-0.239 0.415-0.573 0.736-1 0.964-0.424 0.227-0.909 0.341-1.455 0.341zM16.25 19.2v-6.773h1.023v2.945h3.373v-2.945h1.023v6.773h-1.023v-2.95h-3.373v2.95h-1.023z"></path>
</symbol>
<symbol id="icon-hero-instagram" viewBox="0 0 32 32">
<path stroke-linejoin="miter" stroke-linecap="butt" stroke-miterlimit="4" stroke-width="0.5818" d="M16 0.291c8.676 0 15.709 7.033 15.709 15.709s-7.033 15.709-15.709 15.709c-8.676 0-15.709-7.033-15.709-15.709s7.033-15.709 15.709-15.709z"></path>
<path d="M13.205 12.427v6.773h-1.023v-6.773h1.023zM16.977 19.291c-0.612 0-1.15-0.141-1.614-0.423-0.461-0.282-0.821-0.682-1.082-1.2-0.258-0.521-0.386-1.138-0.386-1.85 0-0.721 0.13-1.341 0.391-1.859 0.264-0.521 0.624-0.921 1.082-1.2 0.458-0.282 0.979-0.423 1.564-0.423 0.364 0 0.703 0.055 1.018 0.164 0.318 0.106 0.6 0.259 0.845 0.459 0.248 0.2 0.453 0.436 0.614 0.709 0.164 0.27 0.274 0.57 0.332 0.9h-1.045c-0.064-0.203-0.148-0.383-0.255-0.541-0.106-0.161-0.233-0.297-0.382-0.409-0.148-0.115-0.317-0.201-0.505-0.259-0.185-0.061-0.391-0.091-0.618-0.091-0.382 0-0.726 0.098-1.032 0.295-0.306 0.194-0.549 0.48-0.727 0.859s-0.268 0.842-0.268 1.391 0.089 1.012 0.268 1.391c0.179 0.379 0.424 0.667 0.736 0.864 0.312 0.194 0.667 0.291 1.064 0.291 0.367 0 0.686-0.074 0.959-0.223 0.273-0.151 0.485-0.364 0.636-0.636s0.227-0.595 0.227-0.968l0.268 0.050h-1.936v-0.845h2.664v0.773c0 0.57-0.121 1.062-0.364 1.477-0.239 0.415-0.573 0.736-1 0.964-0.424 0.227-0.909 0.341-1.455 0.341z"></path>
</symbol>
<symbol id="icon-hero-youtube" viewBox="0 0 32 32">
<path stroke-linejoin="miter" stroke-linecap="butt" stroke-miterlimit="4" stroke-width="0.5818" d="M16 0.291c8.676 0 15.709 7.033 15.709 15.709s-7.033 15.709-15.709 15.709c-8.676 0-15.709-7.033-15.709-15.709s7.033-15.709 15.709-15.709z"></path>
<path d="M10.205 12.427h1.159l1.773 3.082h0.073l1.764-3.082h1.168l-2.459 4.114v2.659h-1.023v-2.659l-2.455-4.114zM16.332 13.305v-0.877h5.245v0.877h-2.109v5.895h-1.018v-5.895h-2.118z"></path>
</symbol>
<symbol id="icon-slider-arrow-left" viewBox="0 0 32 32">
<path stroke-linejoin="round" stroke-linecap="round" stroke-miterlimit="4" stroke-width="2.6667" d="M26.667 16h-21.333"></path>
<path stroke-linejoin="round" stroke-linecap="round" stroke-miterlimit="4" stroke-width="2.6667" d="M13.333 24l-8-8 8-8"></path>
</symbol>
<symbol id="icon-slider-arrow-right" viewBox="0 0 33 32">
<path stroke-linejoin="round" stroke-linecap="round" stroke-miterlimit="4" stroke-width="2.6667" d="M6 16h21.333"></path>
<path stroke-linejoin="round" stroke-linecap="round" stroke-miterlimit="4" stroke-width="2.6667" d="M19.333 8l8 8-8 8"></path>
</symbol>
<symbol id="icon-x-header-modal-close" viewBox="0 0 32 32">
<path stroke-linejoin="round" stroke-linecap="round" stroke-miterlimit="4" stroke-width="2.2857" d="M24 8l-16 16"></path>
<path stroke-linejoin="round" stroke-linecap="round" stroke-miterlimit="4" stroke-width="2.2857" d="M8 8l16 16"></path>
</symbol>
</defs>
</svg>
